HIERARCHY
ROOT Hips
{
  OFFSET 8.156 11.119 -272.157
  CHANNELS 6 Xposition Yposition Zposition Zrotation Xrotation Yrotation
  JOINT LeftHip
  {
    OFFSET 10.445 0.000 0.000
    CHANNELS 3 Zrotation Xrotation Yrotation
    JOINT LeftKnee
    {
      OFFSET -0.000 -45.262 0.000
      CHANNELS 3 Zrotation Xrotation Yrotation
      JOINT LeftAnkle
      {
        OFFSET 0.000 -28.289 0.000
        CHANNELS 3 Zrotation Xrotation Yrotation
        End Site
        {
          OFFSET 0.000 0.000 15.233
        }
      }
    }
  }
  JOINT RightHip
  {
    OFFSET -10.445 0.000 0.000
    CHANNELS 3 Zrotation Xrotation Yrotation
    JOINT RightKnee
    {
      OFFSET -0.000 -45.262 -0.000
      CHANNELS 3 Zrotation Xrotation Yrotation
      JOINT RightAnkle
      {
        OFFSET -0.000 -28.289 -0.000
        CHANNELS 3 Zrotation Xrotation Yrotation
        End Site
        {
          OFFSET -0.000 -0.000 15.233
        }
      }
    }
  }
  JOINT Chest
  {
    OFFSET 0.000 22.631 0.000
    CHANNELS 3 Zrotation Xrotation Yrotation
    JOINT LeftCollar
    {
      OFFSET 0 22.595 0
      CHANNELS 3 Zrotation Xrotation Yrotation
      JOINT LeftShoulder
      {
        OFFSET 17.171 0.000 2.460
        CHANNELS 3 Zrotation Xrotation Yrotation
        JOINT LeftElbow
        {
          OFFSET -0.000 -24.182 0.000
          CHANNELS 3 Zrotation Xrotation Yrotation
          JOINT LeftWrist
          {
            OFFSET -0.000 -17.757 0.000
            CHANNELS 3 Zrotation Xrotation Yrotation
            End Site
            {
              OFFSET -0.000 -11.838 0.000
            }
          }
        }
      }
    }
    JOINT RightCollar
    {
      OFFSET 0 22.402 0
      CHANNELS 3 Zrotation Xrotation Yrotation
      JOINT RightShoulder
      {
        OFFSET -17.427 0.000 2.422
        CHANNELS 3 Zrotation Xrotation Yrotation
        JOINT RightElbow
        {
          OFFSET -0.000 -34.294 -0.000
          CHANNELS 3 Zrotation Xrotation Yrotation
          JOINT RightWrist
          {
            OFFSET -0.000 -17.757 -0.000
            CHANNELS 3 Zrotation Xrotation Yrotation
            End Site
            {
              OFFSET -0.000 -11.838 -0.000
            }
          }
        }
      }
    }
    JOINT Neck
    {
      OFFSET -0.128 22.499 2.441
      CHANNELS 3 Zrotation Xrotation Yrotation
      JOINT Head
      {
        OFFSET -0.000 7.753 0.000
        CHANNELS 3 Zrotation Xrotation Yrotation
        End Site
        {
          OFFSET -0.000 18.090 0.000
        }
      }
    }
  }
}
MOTION
Frames:	19
Frame Time:	0.0333333
-4.85826 10.4647 -273.169 10.363 3.93968 -22.9835 -9.23022 -7.29997 -1.0818 9.06684 11.1026 31.7151 1.92569e-08 4.05051e-08 -6.89769e-08 -17.8513 -5.65454 -1.73343 24.7324 -5.5304 35.8867 4.99922e-07 -2.80594e-07 1.56678e-08 -8.07399 -7.61169 22.0881 0 0 0 29.2245 -0.56158 18.1115 -31.7288 -4.1102 7.43 -5.7217e-08 7.56635e-08 1.17953e-07 0 0 0 -20.6083 12.0552 -1.71944 -28.0413 -8.14468 8.0843 1.07287e-06 -3.13561e-07 -5.01061e-07 9.63332 4.68192 -23.5256 -8.76984e-08 3.74465e-07 -1.21386e-07 
-5.19698 10.5091 -273.512 9.90319 4.72694 -23.5484 -7.94998 -7.74862 -1.02764 8.70886 10.7108 32.3297 4.14677e-07 2.09762e-07 2.95745e-07 -16.5251 -6.77984 -1.95839 24.1462 -4.74773 36.3198 4.94405e-08 5.95315e-08 -1.32187e-08 -7.2692 -8.22904 22.615 0 0 0 29.3104 -0.500625 18.1671 -32.1961 -3.97906 7.51614 -1.37408e-07 -3.92048e-07 -4.7011e-16 0 0 0 -20.52 11.6642 -0.60273 -26.44 -6.55896 8.93912 4.98874e-08 1.14188e-08 -1.04928e-07 9.50785 4.72239 -23.745 7.99867e-07 2.64125e-07 7.15299e-07 
-5.19698 10.5091 -273.512 9.90319 4.72694 -23.5484 -7.94998 -7.74862 -1.02764 8.70886 10.7108 32.3297 4.14677e-07 2.09762e-07 2.95745e-07 -16.5251 -6.77984 -1.95839 24.1462 -4.74773 36.3198 4.94405e-08 5.95315e-08 -1.32187e-08 -7.2692 -8.22904 22.615 0 0 0 29.3104 -0.500625 18.1671 -32.1961 -3.97906 7.51614 -1.37408e-07 -3.92048e-07 -4.7011e-16 0 0 0 -20.52 11.6642 -0.60273 -26.44 -6.55896 8.93912 4.98874e-08 1.14188e-08 -1.04928e-07 9.50785 4.72239 -23.745 7.99867e-07 2.64125e-07 7.15299e-07 
-5.37129 10.4023 -273.56 9.94057 4.41734 -23.7789 -7.98896 -7.39831 -0.951289 8.77245 10.7003 32.5256 1.4253e-07 1.60689e-07 9.52524e-08 -16.5062 -6.43298 -1.82379 24.0053 -4.78289 36.5441 9.75404e-08 -1.91751e-07 3.69953e-07 -7.39056 -7.99164 22.8775 0 0 0 29.3606 -0.491581 18.159 -32.336 -3.68508 7.71046 -7.7839e-08 -6.31612e-08 2.08739e-08 0 0 0 -20.258 11.2749 0.499696 -27.1188 -5.95076 9.20484 -1.37658e-06 -1.07036e-07 3.56467e-07 9.18884 4.93613 -23.9701 7.50468e-07 3.16205e-08 -1.46603e-06 
-5.71943 10.4193 -273.81 9.04167 4.955 -23.9573 -6.31191 -7.60918 -0.837558 8.15177 10.7055 32.7344 4.14451e-07 1.32469e-16 3.66262e-08 -14.9113 -6.77145 -1.79691 23.5009 -4.69553 36.7406 -1.9266e-07 7.89159e-08 7.70776e-08 -6.32045 -8.14994 23.1145 0 0 0 29.1367 -0.5489 18.186 -31.9132 -3.59861 7.75586 2.69941e-08 -3.3315e-07 -6.35997e-08 0 0 0 -20.1801 10.9502 1.44641 -25.9989 -4.21351 10.0142 1.27003e-06 -3.51329e-07 -2.30997e-07 9.03049 4.95765 -23.7918 9.67688e-07 -1.57359e-08 -2.18041e-06 
-5.77783 10.4954 -273.851 9.12674 4.67573 -23.7991 -6.83583 -7.07742 -0.803051 8.87083 10.0762 32.6279 -3.86355e-07 -1.32315e-07 -4.46111e-16 -14.9046 -6.56378 -1.7005 23.1143 -4.61319 36.5066 8.14764e-08 6.10371e-08 -3.51431e-07 -6.5307 -7.91177 22.9736 0 0 0 29.3171 -0.547704 18.0965 -31.5795 -3.83849 7.60574 1.53951e-07 2.96923e-07 -6.23687e-07 0 0 0 -20.1056 11.0537 1.14611 -26.5699 -4.75233 9.77769 -1.11262e-06 3.38864e-08 3.23237e-07 8.75814 5.1559 -23.8527 -3.96056e-08 -6.49501e-08 2.24573e-06 
-5.99563 10.6574 -274.079 8.67011 5.47152 -23.8447 -5.66932 -7.48592 -0.747603 8.25383 9.53779 32.7729 1.34198e-07 -3.84161e-07 -4.85615e-07 -13.9156 -7.10101 -1.76092 22.7124 -4.68247 36.5355 9.76765e-08 -2.16697e-07 1.91187e-08 -5.78929 -8.46213 23.0009 0 0 0 29.3822 -0.419947 18.2656 -31.4021 -3.75393 7.63931 2.24456e-08 -4.07303e-08 1.25291e-07 0 0 0 -20.0415 11.3732 0.181717 -27.1933 -6.16245 9.10835 8.20556e-08 5.01936e-08 -2.69117e-07 8.70842 5.10381 -23.7775 -7.26373e-07 -8.60089e-08 4.6805e-06 
-6.04344 10.6929 -273.957 8.40551 5.07357 -23.7506 -5.48459 -7.31401 -0.713553 7.89169 10.4577 32.5507 -7.85086e-08 -2.83896e-07 -5.2133e-07 -13.6119 -6.70013 -1.63098 22.2029 -4.45339 36.3588 3.47646e-07 -2.61036e-07 -1.16463e-07 -5.71202 -7.98707 22.9784 0 0 0 29.2967 -0.429503 18.2966 -31.2141 -3.87807 7.55751 8.5e-08 5.26549e-08 -4.62614e-08 0 0 0 -20.2708 11.7045 -0.75409 -27.4593 -7.26066 8.56901 -9.50698e-07 1.92696e-07 -2.15884e-07 8.66526 5.12908 -23.5506 1.1621e-06 -3.48281e-07 3.95968e-06 
-6.00585 10.7845 -274.02 8.99105 5.07694 -23.58 -6.03951 -7.42971 -0.720261 7.82036 10.2357 32.354 3.60084e-07 1.32971e-07 3.71919e-07 -14.4826 -6.48928 -1.61359 22.7496 -5.28689 36.3205 2.53169e-07 -1.36979e-07 -5.8354e-08 -6.27983 -8.19975 22.73 0 0 0 29.5107 -0.362923 18.2919 -31.4948 -4.03935 7.46088 -4.796e-08 -6.81699e-08 4.68462e-08 0 0 0 -20.2091 11.4054 0.124784 -26.0398 -6.57127 8.96237 -1.21914e-06 -2.82475e-08 -2.56785e-08 8.36336 5.28148 -23.7214 8.42396e-09 -2.75805e-07 2.1812e-06 
-6.33194 10.8024 -274.123 8.04692 5.28581 -23.6921 -4.85781 -6.72707 -0.581601 8.07273 9.31575 32.615 4.38492e-08 -2.01439e-07 1.51781e-07 -12.812 -6.53639 -1.49429 21.7484 -4.98563 36.3573 -2.47173e-07 7.81621e-08 -3.34647e-07 -5.30401 -8.03498 22.9473 0 0 0 29.3672 -0.294706 18.4742 -31.1066 -4.053 7.43187 3.45404e-07 3.6125e-07 1.73161e-07 0 0 0 -20.5736 11.3103 0.483091 -26.0482 -6.62671 8.93916 1.0762e-06 -1.82747e-07 5.79075e-09 8.07591 5.16805 -23.787 -4.91443e-09 -4.15864e-08 -6.62117e-07 
-6.40161 10.9095 -274.098 7.33485 5.1672 -23.7211 -4.19165 -5.9069 -0.48296 8.28119 8.48407 32.8004 2.95757e-08 -1.22798e-08 2.68192e-07 -12.2208 -6.29805 -1.41753 21.8392 -4.6559 36.3822 -2.78548e-07 -2.19541e-16 9.03167e-08 -4.68483 -7.65095 23.0763 0 0 0 28.7995 -0.408682 18.5965 -30.4422 -4.43585 7.18827 7.70574e-08 -3.78323e-08 -9.00118e-07 0 0 0 -20.653 11.3244 0.441385 -26.4377 -6.2311 9.10165 -2.00176e-07 2.12193e-07 -1.04572e-06 8.21923 5.27554 -23.1648 9.16407e-16 1.57001e-07 -6.68864e-07 
-6.40161 10.9095 -274.098 7.33485 5.1672 -23.7211 -4.19165 -5.9069 -0.48296 8.28119 8.48407 32.8004 2.95757e-08 -1.22798e-08 2.68192e-07 -12.2208 -6.29805 -1.41753 21.8392 -4.6559 36.3822 -2.78548e-07 -2.19541e-16 9.03167e-08 -4.68483 -7.65095 23.0763 0 0 0 28.7995 -0.408682 18.5965 -30.4422 -4.43585 7.18827 7.70574e-08 -3.78323e-08 -9.00118e-07 0 0 0 -20.653 11.3244 0.441385 -26.4377 -6.2311 9.10165 -2.00176e-07 2.12193e-07 -1.04572e-06 8.21923 5.27554 -23.1648 9.16407e-16 1.57001e-07 -6.68864e-07 
-6.15517 11.2571 -274.119 7.48792 5.23282 -23.0988 -4.25235 -6.05458 -0.503896 8.01397 8.20551 32.2346 -7.44575e-07 -3.61948e-07 -5.75228e-07 -12.5779 -6.41921 -1.4894 21.6658 -4.566 35.679 -1.12686e-07 8.67933e-08 -9.8873e-09 -4.88555 -7.71824 22.4264 0 0 0 28.1786 0.0270412 19.6608 -30.1523 -5.24847 6.6146 -2.60342e-07 -7.3562e-07 7.74468e-08 0 0 0 -21 11.3181 0.507234 -26.7843 -5.77279 9.2997 1.35806e-06 -2.99149e-07 5.02711e-07 8.05775 5.3355 -22.5939 6.82181e-07 3.39781e-07 -2.36482e-06 
-6.01649 11.4929 -274.136 7.42795 5.40539 -22.5354 -3.82657 -6.24583 -0.469481 7.231 8.23115 31.6583 -3.59054e-07 -1.17133e-07 -3.67016e-16 -12.6947 -6.233 -1.45592 21.573 -5.11729 35.1416 2.40834e-07 -5.88288e-07 6.13814e-07 -4.84092 -7.80637 21.8538 0 0 0 27.7403 0.391792 20.5353 -29.7408 -6.11818 6.04042 1.73812e-07 1.2922e-06 1.92021e-07 0 0 0 -21.2425 11.6233 -0.320747 -26.2577 -7.00599 8.74204 -1.12505e-07 9.40346e-08 -1.86453e-07 7.9816 5.17706 -21.8843 8.82962e-08 4.22925e-07 2.52129e-06 
-5.86846 11.5454 -274.063 7.16183 5.12542 -21.812 -3.6485 -5.82694 -0.428615 7.38755 8.09686 30.9537 6.57714e-07 4.9524e-07 9.42981e-07 -12.3604 -5.643 -1.29282 20.7536 -5.52456 34.3771 -1.92573e-07 3.13219e-07 -7.7864e-08 -4.79008 -7.38967 21.1815 0 0 0 27.3772 0.756102 21.3753 -27.9167 -6.93555 5.60463 -4.3612e-07 -9.73792e-07 -7.79239e-07 0 0 0 -21.5782 11.4405 0.237657 -25.7614 -6.92208 8.79741 -1.82594e-07 1.77348e-07 3.55937e-07 7.66081 5.23809 -21.1506 -2.2668e-07 -1.1334e-07 -2.01663e-07 
-5.75458 11.7469 -274.105 6.56167 5.32341 -21.0514 -3.12622 -5.20222 -0.365581 7.98833 6.69657 30.4285 1.07666e-07 1.4815e-07 -1.44259e-07 -11.49 -5.75276 -1.26135 19.8533 -5.16274 33.4655 3.07202e-07 2.37974e-07 -4.47534e-08 -4.25175 -7.30005 20.4747 0 0 0 27.0172 1.38254 22.6489 -27.2349 -7.56065 5.19867 1.05389e-07 1.28755e-06 -6.94356e-07 0 0 0 -21.1235 11.7077 -0.663178 -26.5294 -6.92168 8.73515 6.9725e-08 1.23267e-08 -2.81566e-07 7.40226 6.01726 -19.8649 -5.72334e-07 -1.07037e-06 2.79634e-06 
-5.51663 11.8832 -274.334 6.00175 5.46728 -19.7322 -2.53849 -4.95062 -0.305118 8.22468 5.79653 29.2766 -4.13165e-07 -3.51533e-07 -4.35712e-07 -10.8757 -5.55107 -1.16463 19.1765 -5.47884 32.1004 -5.35778e-07 1.09014e-07 3.53089e-07 -3.83873 -7.15146 19.2054 0 0 0 26.3832 2.50477 24.947 -26.6922 -7.36635 5.12417 3.32211e-07 1.72572e-06 -1.91289e-08 0 0 0 -20.9089 11.9061 -1.34916 -26.0257 -7.25977 8.57502 4.47732e-08 3.51983e-07 -1.68349e-07 7.09897 7.55105 -18.6294 -4.11787e-07 -6.43761e-08 -3.48015e-08 
-5.2099 12.0888 -275.052 5.71376 7.11977 -18.4597 -1.75992 -6.92487 -0.341072 8.44576 5.54395 28.0962 -1.11208e-06 -8.20066e-08 -5.89522e-07 -10.0738 -6.74247 -1.32447 18.5722 -6.66814 30.9085 7.91473e-16 2.50451e-07 -3.62131e-07 -3.21064 -8.54039 17.8642 0 0 0 25.6901 3.71982 27.4726 -26.3292 -7.00803 5.07843 1.90966e-07 8.22502e-07 -1.93103e-06 0 0 0 -20.7704 11.7419 -0.974334 -24.488 -6.36707 9.02168 -3.51548e-08 -1.2717e-16 4.14527e-07 6.6566 8.51823 -17.6406 6.27683e-08 6.07545e-08 2.8119e-07 
-5.2099 12.0888 -275.052 5.71376 7.11977 -18.4597 -1.75992 -6.92487 -0.341072 8.44576 5.54395 28.0962 -1.11208e-06 -8.20066e-08 -5.89522e-07 -10.0738 -6.74247 -1.32447 18.5722 -6.66814 30.9085 7.91473e-16 2.50451e-07 -3.62131e-07 -3.21064 -8.54039 17.8642 0 0 0 25.6901 3.71982 27.4726 -26.3292 -7.00803 5.07843 1.90966e-07 8.22502e-07 -1.93103e-06 0 0 0 -20.7704 11.7419 -0.974334 -24.488 -6.36707 9.02168 -3.51548e-08 -1.2717e-16 4.14527e-07 6.6566 8.51823 -17.6406 6.27683e-08 6.07545e-08 2.8119e-07 
